<?xml version="1.0" encoding="UTF-8" standalone="no"?>
<!DOCTYPE svg PUBLIC "-//W3C//DTD SVG 1.1//EN"
 "http://www.w3.org/Graphics/SVG/1.1/DTD/svg11.dtd">
<!-- Generated by graphviz version 2.40.1 (20161225.0304)
 -->
<!-- Title: DFA Pages: 1 -->
<svg width="164pt" height="226pt"
 viewBox="0.00 0.00 164.00 226.00" xmlns="http://www.w3.org/2000/svg" xmlns:xlink="http://www.w3.org/1999/xlink">
<g id="graph0" class="graph" transform="scale(1 1) rotate(0) translate(4 222)">
<title>DFA</title>
<polygon fill="#ffffff" stroke="transparent" points="-4,4 -4,-222 160,-222 160,4 -4,4"/>
<!-- 0 -->
<g id="node1" class="node">
<title>0</title>
<ellipse fill="#add8e6" stroke="#000000" cx="65" cy="-200" rx="18" ry="18"/>
<text text-anchor="middle" x="65" y="-196.3" font-family="Times,serif" font-size="14.00" fill="#000000">0</text>
</g>
<!-- 1 -->
<g id="node2" class="node">
<title>1</title>
<ellipse fill="none" stroke="#000000" cx="22" cy="-109" rx="18" ry="18"/>
<ellipse fill="none" stroke="#000000" cx="22" cy="-109" rx="22" ry="22"/>
<text text-anchor="middle" x="22" y="-105.3" font-family="Times,serif" font-size="14.00" fill="#000000">1</text>
</g>
<!-- 0&#45;&gt;1 -->
<g id="edge1" class="edge">
<title>0&#45;&gt;1</title>
<path fill="none" stroke="#000000" d="M57.1131,-183.3092C51.1862,-170.7662 42.9146,-153.2612 35.8884,-138.3917"/>
<polygon fill="#000000" stroke="#000000" points="38.925,-136.6256 31.4881,-129.0795 32.596,-139.6162 38.925,-136.6256"/>
<text text-anchor="middle" x="51.5" y="-152.8" font-family="Times,serif" font-size="14.00" fill="#000000">a</text>
</g>
<!-- 2 -->
<g id="node3" class="node">
<title>2</title>
<ellipse fill="none" stroke="#000000" cx="109" cy="-109" rx="18" ry="18"/>
<ellipse fill="none" stroke="#000000" cx="109" cy="-109" rx="22" ry="22"/>
<text text-anchor="middle" x="109" y="-105.3" font-family="Times,serif" font-size="14.00" fill="#000000">2</text>
</g>
<!-- 0&#45;&gt;2 -->
<g id="edge2" class="edge">
<title>0&#45;&gt;2</title>
<path fill="none" stroke="#000000" d="M72.8663,-183.731C78.9494,-171.15 87.5326,-153.3984 94.8073,-138.3532"/>
<polygon fill="#000000" stroke="#000000" points="98.1572,-139.4651 99.3593,-128.9387 91.8552,-136.418 98.1572,-139.4651"/>
<text text-anchor="middle" x="92.5" y="-152.8" font-family="Times,serif" font-size="14.00" fill="#000000">b</text>
</g>
<!-- 1&#45;&gt;1 -->
<g id="edge3" class="edge">
<title>1&#45;&gt;1</title>
<path fill="none" stroke="#000000" d="M42.5808,-117.3702C52.8447,-118.5284 62,-115.7383 62,-109 62,-104.6833 58.2427,-101.9869 52.8436,-100.9109"/>
<polygon fill="#000000" stroke="#000000" points="52.6729,-97.405 42.5808,-100.6298 52.4812,-104.4024 52.6729,-97.405"/>
<text text-anchor="middle" x="65.5" y="-105.3" font-family="Times,serif" font-size="14.00" fill="#000000">a</text>
</g>
<!-- 3 -->
<g id="node4" class="node">
<title>3</title>
<ellipse fill="none" stroke="#000000" cx="65" cy="-18" rx="18" ry="18"/>
<text text-anchor="middle" x="65" y="-14.3" font-family="Times,serif" font-size="14.00" fill="#000000">3</text>
</g>
<!-- 1&#45;&gt;3 -->
<g id="edge4" class="edge">
<title>1&#45;&gt;3</title>
<path fill="none" stroke="#000000" d="M31.5431,-88.8042C37.8153,-75.5304 46.0782,-58.0438 52.823,-43.7699"/>
<polygon fill="#000000" stroke="#000000" points="56.0989,-45.0294 57.2068,-34.4926 49.7699,-42.0387 56.0989,-45.0294"/>
<text text-anchor="middle" x="51.5" y="-57.8" font-family="Times,serif" font-size="14.00" fill="#000000">b</text>
</g>
<!-- 2&#45;&gt;2 -->
<g id="edge6" class="edge">
<title>2&#45;&gt;2</title>
<path fill="none" stroke="#000000" d="M129.5808,-117.3702C139.8447,-118.5284 149,-115.7383 149,-109 149,-104.6833 145.2427,-101.9869 139.8436,-100.9109"/>
<polygon fill="#000000" stroke="#000000" points="139.6729,-97.405 129.5808,-100.6298 139.4812,-104.4024 139.6729,-97.405"/>
<text text-anchor="middle" x="152.5" y="-105.3" font-family="Times,serif" font-size="14.00" fill="#000000">b</text>
</g>
<!-- 2&#45;&gt;3 -->
<g id="edge5" class="edge">
<title>2&#45;&gt;3</title>
<path fill="none" stroke="#000000" d="M99.235,-88.8042C92.8169,-75.5304 84.3618,-58.0438 77.4602,-43.7699"/>
<polygon fill="#000000" stroke="#000000" points="80.4785,-41.9719 72.9744,-34.4926 74.1765,-45.019 80.4785,-41.9719"/>
<text text-anchor="middle" x="92.5" y="-57.8" font-family="Times,serif" font-size="14.00" fill="#000000">a</text>
</g>
<!-- 3&#45;&gt;3 -->
<g id="edge7" class="edge">
<title>3&#45;&gt;3</title>
<path fill="none" stroke="#000000" d="M82.7817,-21.775C92.3149,-22.4165 101,-21.1582 101,-18 101,-16.0755 97.7749,-14.8564 93.0981,-14.3429"/>
<polygon fill="#000000" stroke="#000000" points="92.8211,-10.8396 82.7817,-14.225 92.741,-17.8391 92.8211,-10.8396"/>
<text text-anchor="middle" x="104.5" y="-14.3" font-family="Times,serif" font-size="14.00" fill="#000000">a</text>
</g>
<!-- 3&#45;&gt;3 -->
<g id="edge8" class="edge">
<title>3&#45;&gt;3</title>
<path fill="none" stroke="#000000" d="M82.1418,-24.1447C99.585,-27.7592 119,-25.7109 119,-18 119,-11.7951 106.4283,-9.2569 92.4287,-10.3855"/>
<polygon fill="#000000" stroke="#000000" points="91.5461,-6.976 82.1418,-11.8553 92.5363,-13.9056 91.5461,-6.976"/>
<text text-anchor="middle" x="122.5" y="-14.3" font-family="Times,serif" font-size="14.00" fill="#000000">b</text>
</g>
</g>
</svg>
