<?xml version="1.0" encoding="UTF-8" standalone="no"?>
<!DOCTYPE svg PUBLIC "-//W3C//DTD SVG 1.1//EN"
 "http://www.w3.org/Graphics/SVG/1.1/DTD/svg11.dtd">
<!-- Generated by graphviz version 2.40.1 (20161225.0304)
 -->
<!-- Title: DFA Pages: 1 -->
<svg width="178pt" height="153pt"
 viewBox="0.00 0.00 177.90 152.79" xmlns="http://www.w3.org/2000/svg" xmlns:xlink="http://www.w3.org/1999/xlink">
<g id="graph0" class="graph" transform="scale(1 1) rotate(0) translate(4 148.7924)">
<title>DFA</title>
<polygon fill="#ffffff" stroke="transparent" points="-4,4 -4,-148.7924 173.8962,-148.7924 173.8962,4 -4,4"/>
<!-- Q3 -->
<g id="node1" class="node">
<title>Q3</title>
<ellipse fill="none" stroke="#000000" cx="25.4481" cy="-25.4481" rx="21.4044" ry="21.4044"/>
<ellipse fill="none" stroke="#000000" cx="25.4481" cy="-25.4481" rx="25.3963" ry="25.3963"/>
<text text-anchor="middle" x="25.4481" y="-21.7481" font-family="Times,serif" font-size="14.00" fill="#000000">Q3</text>
</g>
<!-- Q3&#45;&gt;Q3 -->
<g id="edge1" class="edge">
<title>Q3&#45;&gt;Q3</title>
<path fill="none" stroke="#000000" d="M49.5752,-34.7109C59.9842,-35.4693 68.8962,-32.3817 68.8962,-25.4481 68.8962,-21.0063 65.2387,-18.1428 59.8732,-16.8578"/>
<polygon fill="#000000" stroke="#000000" points="59.7821,-13.3444 49.5752,-16.1852 59.3258,-20.3296 59.7821,-13.3444"/>
<text text-anchor="middle" x="72.3962" y="-21.7481" font-family="Times,serif" font-size="14.00" fill="#000000">b</text>
</g>
<!-- Q1 -->
<g id="node2" class="node">
<title>Q1</title>
<ellipse fill="#add8e6" stroke="#000000" cx="72.4481" cy="-123.3443" rx="21.3963" ry="21.3963"/>
<text text-anchor="middle" x="72.4481" y="-119.6443" font-family="Times,serif" font-size="14.00" fill="#000000">Q1</text>
</g>
<!-- Q1&#45;&gt;Q3 -->
<g id="edge2" class="edge">
<title>Q1&#45;&gt;Q3</title>
<path fill="none" stroke="#000000" d="M63.1624,-104.0032C56.8263,-90.8056 48.2818,-73.0084 40.928,-57.6911"/>
<polygon fill="#000000" stroke="#000000" points="44.0167,-56.0378 36.5334,-48.5377 37.7063,-59.0674 44.0167,-56.0378"/>
<text text-anchor="middle" x="56.9481" y="-72.6962" font-family="Times,serif" font-size="14.00" fill="#000000">b</text>
</g>
<!-- Q2 -->
<g id="node3" class="node">
<title>Q2</title>
<ellipse fill="none" stroke="#000000" cx="119.4481" cy="-25.4481" rx="21.4044" ry="21.4044"/>
<ellipse fill="none" stroke="#000000" cx="119.4481" cy="-25.4481" rx="25.3963" ry="25.3963"/>
<text text-anchor="middle" x="119.4481" y="-21.7481" font-family="Times,serif" font-size="14.00" fill="#000000">Q2</text>
</g>
<!-- Q1&#45;&gt;Q2 -->
<g id="edge3" class="edge">
<title>Q1&#45;&gt;Q2</title>
<path fill="none" stroke="#000000" d="M81.7338,-104.0032C88.0699,-90.8056 96.6144,-73.0084 103.9682,-57.6911"/>
<polygon fill="#000000" stroke="#000000" points="107.1899,-59.0674 108.3628,-48.5377 100.8795,-56.0378 107.1899,-59.0674"/>
<text text-anchor="middle" x="99.9481" y="-72.6962" font-family="Times,serif" font-size="14.00" fill="#000000">a</text>
</g>
<!-- Q2&#45;&gt;Q2 -->
<g id="edge4" class="edge">
<title>Q2&#45;&gt;Q2</title>
<path fill="none" stroke="#000000" d="M143.5752,-34.7109C153.9842,-35.4693 162.8962,-32.3817 162.8962,-25.4481 162.8962,-21.0063 159.2387,-18.1428 153.8732,-16.8578"/>
<polygon fill="#000000" stroke="#000000" points="153.7821,-13.3444 143.5752,-16.1852 153.3258,-20.3296 153.7821,-13.3444"/>
<text text-anchor="middle" x="166.3962" y="-21.7481" font-family="Times,serif" font-size="14.00" fill="#000000">a</text>
</g>
</g>
</svg>
