<?xml version="1.0" encoding="UTF-8" standalone="no"?>
<!DOCTYPE svg PUBLIC "-//W3C//DTD SVG 1.1//EN"
 "http://www.w3.org/Graphics/SVG/1.1/DTD/svg11.dtd">
<!-- Generated by graphviz version 2.40.1 (20161225.0304)
 -->
<!-- Title: DFA Pages: 1 -->
<svg width="148pt" height="313pt"
 viewBox="0.00 0.00 148.00 313.00" xmlns="http://www.w3.org/2000/svg" xmlns:xlink="http://www.w3.org/1999/xlink">
<g id="graph0" class="graph" transform="scale(1 1) rotate(0) translate(4 309)">
<title>DFA</title>
<polygon fill="#ffffff" stroke="transparent" points="-4,4 -4,-309 144,-309 144,4 -4,4"/>
<!-- 0 -->
<g id="node1" class="node">
<title>0</title>
<ellipse fill="#add8e6" stroke="#000000" cx="57" cy="-287" rx="18" ry="18"/>
<text text-anchor="middle" x="57" y="-283.3" font-family="Times,serif" font-size="14.00" fill="#000000">0</text>
</g>
<!-- 1 -->
<g id="node2" class="node">
<title>1</title>
<ellipse fill="none" stroke="#000000" cx="18" cy="-200" rx="18" ry="18"/>
<text text-anchor="middle" x="18" y="-196.3" font-family="Times,serif" font-size="14.00" fill="#000000">1</text>
</g>
<!-- 0&#45;&gt;1 -->
<g id="edge1" class="edge">
<title>0&#45;&gt;1</title>
<path fill="none" stroke="#000000" d="M49.4804,-270.2255C43.8333,-257.6281 35.9976,-240.1485 29.5566,-225.78"/>
<polygon fill="#000000" stroke="#000000" points="32.6486,-224.1213 25.3642,-216.4279 26.2611,-226.9848 32.6486,-224.1213"/>
<text text-anchor="middle" x="43.5" y="-239.8" font-family="Times,serif" font-size="14.00" fill="#000000">e</text>
</g>
<!-- 2 -->
<g id="node3" class="node">
<title>2</title>
<ellipse fill="none" stroke="#000000" cx="97" cy="-200" rx="18" ry="18"/>
<text text-anchor="middle" x="97" y="-196.3" font-family="Times,serif" font-size="14.00" fill="#000000">2</text>
</g>
<!-- 0&#45;&gt;2 -->
<g id="edge2" class="edge">
<title>0&#45;&gt;2</title>
<path fill="none" stroke="#000000" d="M64.5237,-270.636C70.2974,-258.0781 78.3808,-240.4967 85.0385,-226.0162"/>
<polygon fill="#000000" stroke="#000000" points="88.3767,-227.1342 89.374,-216.5865 82.0167,-224.2101 88.3767,-227.1342"/>
<text text-anchor="middle" x="82.5" y="-239.8" font-family="Times,serif" font-size="14.00" fill="#000000">e</text>
</g>
<!-- 1&#45;&gt;1 -->
<g id="edge3" class="edge">
<title>1&#45;&gt;1</title>
<path fill="none" stroke="#000000" d="M34.6641,-207.3828C44.625,-209.0234 54,-206.5625 54,-200 54,-195.7959 50.1525,-193.2751 44.7682,-192.4375"/>
<polygon fill="#000000" stroke="#000000" points="44.6002,-188.9399 34.6641,-192.6172 44.7247,-195.9388 44.6002,-188.9399"/>
<text text-anchor="middle" x="57.5" y="-196.3" font-family="Times,serif" font-size="14.00" fill="#000000">a</text>
</g>
<!-- 3 -->
<g id="node4" class="node">
<title>3</title>
<ellipse fill="none" stroke="#000000" cx="57" cy="-109" rx="18" ry="18"/>
<ellipse fill="none" stroke="#000000" cx="57" cy="-109" rx="22" ry="22"/>
<text text-anchor="middle" x="57" y="-105.3" font-family="Times,serif" font-size="14.00" fill="#000000">3</text>
</g>
<!-- 1&#45;&gt;3 -->
<g id="edge4" class="edge">
<title>1&#45;&gt;3</title>
<path fill="none" stroke="#000000" d="M25.1532,-183.3092C30.4927,-170.8504 37.9303,-153.496 44.2751,-138.6914"/>
<polygon fill="#000000" stroke="#000000" points="47.5315,-139.9782 48.2537,-129.408 41.0974,-137.2207 47.5315,-139.9782"/>
<text text-anchor="middle" x="43.5" y="-152.8" font-family="Times,serif" font-size="14.00" fill="#000000">b</text>
</g>
<!-- 2&#45;&gt;2 -->
<g id="edge5" class="edge">
<title>2&#45;&gt;2</title>
<path fill="none" stroke="#000000" d="M113.6641,-207.3828C123.625,-209.0234 133,-206.5625 133,-200 133,-195.7959 129.1525,-193.2751 123.7682,-192.4375"/>
<polygon fill="#000000" stroke="#000000" points="123.6002,-188.9399 113.6641,-192.6172 123.7247,-195.9388 123.6002,-188.9399"/>
<text text-anchor="middle" x="136.5" y="-196.3" font-family="Times,serif" font-size="14.00" fill="#000000">a</text>
</g>
<!-- 2&#45;&gt;3 -->
<g id="edge6" class="edge">
<title>2&#45;&gt;3</title>
<path fill="none" stroke="#000000" d="M89.6634,-183.3092C84.187,-170.8504 76.5587,-153.496 70.0512,-138.6914"/>
<polygon fill="#000000" stroke="#000000" points="73.1988,-137.1542 65.9706,-129.408 66.7905,-139.9711 73.1988,-137.1542"/>
<text text-anchor="middle" x="83.5" y="-152.8" font-family="Times,serif" font-size="14.00" fill="#000000">b</text>
</g>
<!-- 3&#45;&gt;3 -->
<g id="edge7" class="edge">
<title>3&#45;&gt;3</title>
<path fill="none" stroke="#000000" d="M77.5808,-117.3702C87.8447,-118.5284 97,-115.7383 97,-109 97,-104.6833 93.2427,-101.9869 87.8436,-100.9109"/>
<polygon fill="#000000" stroke="#000000" points="87.6729,-97.405 77.5808,-100.6298 87.4812,-104.4024 87.6729,-97.405"/>
<text text-anchor="middle" x="100.5" y="-105.3" font-family="Times,serif" font-size="14.00" fill="#000000">a</text>
</g>
<!-- 4 -->
<g id="node5" class="node">
<title>4</title>
<ellipse fill="none" stroke="#000000" cx="57" cy="-18" rx="18" ry="18"/>
<text text-anchor="middle" x="57" y="-14.3" font-family="Times,serif" font-size="14.00" fill="#000000">4</text>
</g>
<!-- 3&#45;&gt;4 -->
<g id="edge8" class="edge">
<title>3&#45;&gt;4</title>
<path fill="none" stroke="#000000" d="M48.7676,-88.4677C45.599,-78.1716 43.1371,-65.48 45,-54 45.5009,-50.9131 46.2287,-47.7332 47.0819,-44.601"/>
<polygon fill="#000000" stroke="#000000" points="50.4621,-45.5185 50.1111,-34.9295 43.7821,-43.4262 50.4621,-45.5185"/>
<text text-anchor="middle" x="48.5" y="-57.8" font-family="Times,serif" font-size="14.00" fill="#000000">e</text>
</g>
<!-- 4&#45;&gt;3 -->
<g id="edge9" class="edge">
<title>4&#45;&gt;3</title>
<path fill="none" stroke="#000000" d="M57,-36.1556C57,-47.8111 57,-63.2722 57,-76.9511"/>
<polygon fill="#000000" stroke="#000000" points="53.5001,-76.9714 57,-86.9714 60.5001,-76.9715 53.5001,-76.9714"/>
<text text-anchor="middle" x="60.5" y="-57.8" font-family="Times,serif" font-size="14.00" fill="#000000">a</text>
</g>
<!-- 4&#45;&gt;4 -->
<g id="edge10" class="edge">
<title>4&#45;&gt;4</title>
<path fill="none" stroke="#000000" d="M73.6641,-25.3828C83.625,-27.0234 93,-24.5625 93,-18 93,-13.7959 89.1525,-11.2751 83.7682,-10.4375"/>
<polygon fill="#000000" stroke="#000000" points="83.6002,-6.9399 73.6641,-10.6172 83.7247,-13.9388 83.6002,-6.9399"/>
<text text-anchor="middle" x="96.5" y="-14.3" font-family="Times,serif" font-size="14.00" fill="#000000">b</text>
</g>
</g>
</svg>
